<svg xmlns="http://www.w3.org/2000/svg" xmlns:xlink="http://www.w3.org/1999/xlink" width="500" zoomAndPan="magnify" viewBox="0 0 375 374.999991" height="500" preserveAspectRatio="xMidYMid meet" version="1.0"><defs><g/><clipPath id="17386ee2e3"><path d="M 105 127.019531 L 172 127.019531 L 172 228 L 105 228 Z M 105 127.019531 " clip-rule="nonzero"/></clipPath><clipPath id="9f047f0f93"><path d="M 190 127.019531 L 257 127.019531 L 257 228 L 190 228 Z M 190 127.019531 " clip-rule="nonzero"/></clipPath><clipPath id="c34d458d3c"><path d="M 81.15625 158.296875 L 157 158.296875 L 157 259.769531 L 81.15625 259.769531 Z M 81.15625 158.296875 " clip-rule="nonzero"/></clipPath><clipPath id="1edf59e7c6"><path d="M 205.339844 158.296875 L 281.34375 158.296875 L 281.34375 259.769531 L 205.339844 259.769531 Z M 205.339844 158.296875 " clip-rule="nonzero"/></clipPath><clipPath id="faff6bc975"><path d="M 127.796875 57.8125 L 236.546875 57.8125 L 236.546875 133.5625 L 127.796875 133.5625 Z M 127.796875 57.8125 " clip-rule="nonzero"/></clipPath></defs><path stroke-linecap="butt" transform="matrix(0.7502, 0, 0, 0.75, 137.854536, 181.104451)" fill="none" stroke-linejoin="miter" d="M 0.001243 0.501357 L 116.980414 0.501357 " stroke="#03578c" stroke-width="1" stroke-opacity="1" stroke-miterlimit="4"/><g clip-path="url(#17386ee2e3)"><path fill="#60c1d6" d="M 143.582031 222.976562 C 150.816406 222.976562 161.144531 223.894531 171.734375 227.914062 C 165.59375 224.5625 153.878906 219.589844 138.394531 219.589844 C 136.394531 219.589844 134.363281 219.675781 132.355469 219.835938 L 131.980469 219.867188 L 111.042969 132.664062 L 111.492188 132.578125 C 116.457031 131.613281 121.480469 131.125 126.417969 131.125 C 147.917969 131.125 164.003906 140.359375 171.605469 145.789062 C 154.484375 129.582031 130.589844 127.019531 117.222656 127.019531 C 111.367188 127.019531 107.125 127.503906 105.769531 127.679688 L 127.980469 224.414062 C 129.582031 224.082031 135.53125 222.976562 143.582031 222.976562 " fill-opacity="1" fill-rule="nonzero"/></g><g clip-path="url(#9f047f0f93)"><path fill="#60c1d6" d="M 218.917969 222.976562 C 211.6875 222.976562 201.355469 223.894531 190.769531 227.914062 C 196.90625 224.5625 208.625 219.589844 224.109375 219.589844 C 226.105469 219.589844 228.136719 219.675781 230.148438 219.835938 L 230.519531 219.867188 L 251.457031 132.664062 L 251.011719 132.578125 C 246.046875 131.613281 241.023438 131.125 236.085938 131.125 C 214.582031 131.125 198.5 140.359375 190.898438 145.789062 C 208.019531 129.582031 231.910156 127.019531 245.28125 127.019531 C 251.136719 127.019531 255.378906 127.503906 256.734375 127.679688 L 234.523438 224.414062 C 232.921875 224.082031 226.972656 222.976562 218.917969 222.976562 " fill-opacity="1" fill-rule="nonzero"/></g><path fill="#03578c" d="M 119.605469 235.042969 C 129.597656 231.171875 139.953125 229.210938 150.394531 229.210938 C 157.128906 229.210938 162.769531 230.050781 166.8125 230.921875 C 160 228.605469 152.222656 227.4375 143.601562 227.4375 C 132.433594 227.4375 123.882812 229.476562 123.800781 229.5 L 123.378906 229.597656 L 123.273438 229.183594 L 101.738281 143.722656 L 102.171875 143.625 C 103.769531 143.257812 105.914062 142.960938 107.804688 142.699219 L 108.308594 142.632812 L 107.230469 137.9375 C 101.988281 138.191406 97.664062 138.75 96.277344 138.941406 L 119.605469 235.042969 " fill-opacity="1" fill-rule="nonzero"/><path fill="#03578c" d="M 242.894531 235.042969 C 232.90625 231.171875 222.550781 229.210938 212.109375 229.210938 C 205.371094 229.210938 199.734375 230.050781 195.691406 230.921875 C 202.503906 228.605469 210.28125 227.4375 218.902344 227.4375 C 230.066406 227.4375 238.617188 229.476562 238.703125 229.5 L 239.121094 229.597656 L 239.226562 229.183594 L 260.761719 143.722656 L 260.332031 143.625 C 258.734375 143.257812 256.589844 142.960938 254.699219 142.699219 L 254.195312 142.632812 L 255.269531 137.9375 C 260.515625 138.191406 264.835938 138.75 266.226562 138.941406 L 242.894531 235.042969 " fill-opacity="1" fill-rule="nonzero"/><path fill="#60c1d6" d="M 91.867188 164.039062 L 112.558594 246.703125 C 134.335938 236.207031 151.738281 233.992188 162.535156 233.992188 C 163.6875 233.992188 164.757812 234.019531 165.746094 234.058594 C 161.976562 233.453125 158.074219 233.148438 154.066406 233.148438 C 133.695312 233.148438 116.972656 241.054688 116.804688 241.132812 L 116.328125 241.363281 L 94.050781 155.546875 L 94.484375 155.441406 C 95.914062 155.101562 97.410156 154.800781 99.15625 154.496094 L 98.21875 150.640625 L 98.003906 149.75 C 93.175781 150.042969 89.734375 150.582031 88.550781 150.789062 L 90.386719 158.117188 L 91.867188 164.039062 " fill-opacity="1" fill-rule="nonzero"/><path fill="#60c1d6" d="M 270.636719 164.039062 L 249.941406 246.703125 C 228.167969 236.207031 210.761719 233.992188 199.964844 233.992188 C 198.8125 233.992188 197.742188 234.019531 196.753906 234.058594 C 200.523438 233.453125 204.429688 233.148438 208.4375 233.148438 C 228.804688 233.148438 245.53125 241.054688 245.695312 241.132812 L 246.175781 241.363281 L 268.449219 155.546875 L 268.019531 155.441406 C 266.589844 155.101562 265.09375 154.800781 263.34375 154.496094 L 264.28125 150.640625 L 264.496094 149.75 C 269.328125 150.042969 272.769531 150.582031 273.953125 150.789062 L 272.117188 158.117188 L 270.636719 164.039062 " fill-opacity="1" fill-rule="nonzero"/><g clip-path="url(#c34d458d3c)"><path fill="#03578c" d="M 81.15625 159.460938 L 106.402344 259.78125 C 107.796875 258.675781 109.285156 257.570312 110.835938 256.484375 C 127.488281 244.863281 146.902344 239.464844 156.9375 237.289062 C 134.566406 239.421875 115.699219 249.21875 110.054688 252.410156 L 109.5625 252.691406 L 86.660156 164.21875 L 87.089844 164.113281 C 88.195312 163.851562 89.355469 163.613281 90.796875 163.347656 L 89.628906 158.683594 L 89.582031 158.492188 C 85.296875 158.789062 82.253906 159.269531 81.15625 159.460938 " fill-opacity="1" fill-rule="nonzero"/></g><g clip-path="url(#1edf59e7c6)"><path fill="#03578c" d="M 281.347656 159.460938 L 256.101562 259.78125 C 254.707031 258.675781 253.214844 257.570312 251.667969 256.484375 C 235.015625 244.863281 215.601562 239.464844 205.5625 237.289062 C 227.9375 239.421875 246.800781 249.21875 252.445312 252.410156 L 252.941406 252.691406 L 275.84375 164.21875 L 275.414062 164.113281 C 274.308594 163.851562 273.148438 163.613281 271.703125 163.347656 L 272.871094 158.683594 L 272.921875 158.492188 C 277.207031 158.789062 280.246094 159.269531 281.347656 159.460938 " fill-opacity="1" fill-rule="nonzero"/></g><g fill="#03578c" fill-opacity="1"><g transform="translate(125.088006, 172.217201)"><g><path d="M 5.863281 0.214844 C 8.289062 0.214844 10.542969 -1.351562 10.542969 -4.230469 C 10.542969 -6.011719 9.683594 -7.515625 8.09375 -8.246094 C 7.023438 -8.738281 5.96875 -8.738281 5.863281 -8.738281 C 4.746094 -8.738281 3.671875 -9.40625 3.671875 -10.648438 C 3.671875 -12.046875 4.679688 -12.734375 5.863281 -12.734375 C 7 -12.734375 7.964844 -12.175781 8.007812 -10.929688 L 10.5 -10.929688 C 10.457031 -13.484375 8.460938 -15.246094 5.863281 -15.246094 C 3.4375 -15.246094 1.160156 -13.507812 1.160156 -10.648438 C 1.160156 -8.867188 2.039062 -7.535156 3.605469 -6.808594 C 4.703125 -6.3125 5.734375 -6.3125 5.863281 -6.3125 C 6.871094 -6.269531 8.050781 -5.496094 8.050781 -4.230469 C 8.050781 -3.050781 7.023438 -2.296875 5.863281 -2.296875 C 4.746094 -2.296875 3.714844 -2.921875 3.671875 -4.164062 L 1.160156 -4.164062 C 1.203125 -1.351562 3.265625 0.148438 5.863281 0.214844 Z M 5.863281 0.214844 "/></g></g></g><g fill="#03578c" fill-opacity="1"><g transform="translate(136.74554, 172.217201)"><g><path d="M 13.011719 -15.03125 L 10.5 -15.03125 L 10.5 -8.804688 L 4.25 -8.804688 L 4.25 -15.03125 L 1.738281 -15.03125 L 1.738281 0 L 4.25 0 L 4.25 -6.269531 L 10.5 -6.269531 L 10.5 0 L 13.011719 0 Z M 13.011719 -15.03125 "/></g></g></g><g fill="#03578c" fill-opacity="1"><g transform="translate(151.473113, 172.217201)"><g><path d="M 4.207031 -12.519531 L 11.722656 -12.519531 L 11.722656 -15.03125 L 1.695312 -15.03125 L 1.695312 0 L 11.722656 0 L 11.722656 -2.511719 L 4.207031 -2.511719 L 4.207031 -6.269531 L 10.457031 -6.269531 L 10.457031 -8.761719 L 4.207031 -8.761719 Z M 4.207031 -12.519531 "/></g></g></g><g fill="#03578c" fill-opacity="1"><g transform="translate(164.096746, 172.217201)"><g><path d="M 4.207031 -2.511719 L 4.207031 -15.03125 L 1.695312 -15.03125 L 1.695312 0 L 9.769531 0 L 9.769531 -2.511719 Z M 4.207031 -2.511719 "/></g></g></g><g fill="#03578c" fill-opacity="1"><g transform="translate(174.85259, 172.217201)"><g><path d="M 4.207031 -12.519531 L 11.722656 -12.519531 L 11.722656 -15.03125 L 1.695312 -15.03125 L 1.695312 0 L 4.207031 0 L 4.207031 -6.269531 L 10.457031 -6.269531 L 10.457031 -8.761719 L 4.207031 -8.761719 Z M 4.207031 -12.519531 "/></g></g></g><g fill="#03578c" fill-opacity="1"><g transform="translate(187.30447, 172.217201)"><g/></g></g><g fill="#03578c" fill-opacity="1"><g transform="translate(194.711189, 172.217201)"><g><path d="M 5.863281 0.214844 C 8.289062 0.214844 10.542969 -1.351562 10.542969 -4.230469 C 10.542969 -6.011719 9.683594 -7.515625 8.09375 -8.246094 C 7.023438 -8.738281 5.96875 -8.738281 5.863281 -8.738281 C 4.746094 -8.738281 3.671875 -9.40625 3.671875 -10.648438 C 3.671875 -12.046875 4.679688 -12.734375 5.863281 -12.734375 C 7 -12.734375 7.964844 -12.175781 8.007812 -10.929688 L 10.5 -10.929688 C 10.457031 -13.484375 8.460938 -15.246094 5.863281 -15.246094 C 3.4375 -15.246094 1.160156 -13.507812 1.160156 -10.648438 C 1.160156 -8.867188 2.039062 -7.535156 3.605469 -6.808594 C 4.703125 -6.3125 5.734375 -6.3125 5.863281 -6.3125 C 6.871094 -6.269531 8.050781 -5.496094 8.050781 -4.230469 C 8.050781 -3.050781 7.023438 -2.296875 5.863281 -2.296875 C 4.746094 -2.296875 3.714844 -2.921875 3.671875 -4.164062 L 1.160156 -4.164062 C 1.203125 -1.351562 3.265625 0.148438 5.863281 0.214844 Z M 5.863281 0.214844 "/></g></g></g><g fill="#03578c" fill-opacity="1"><g transform="translate(206.368724, 172.217201)"><g><path d="M 13.011719 -15.03125 L 10.5 -15.03125 L 10.5 -8.804688 L 4.25 -8.804688 L 4.25 -15.03125 L 1.738281 -15.03125 L 1.738281 0 L 4.25 0 L 4.25 -6.269531 L 10.5 -6.269531 L 10.5 0 L 13.011719 0 Z M 13.011719 -15.03125 "/></g></g></g><g fill="#03578c" fill-opacity="1"><g transform="translate(221.096297, 172.217201)"><g><path d="M 1.761719 0 L 4.273438 0 L 4.273438 -15.03125 L 1.761719 -15.03125 Z M 1.761719 0 "/></g></g></g><g fill="#03578c" fill-opacity="1"><g transform="translate(227.107546, 172.217201)"><g><path d="M 6.722656 -15.03125 L 1.695312 -15.03125 L 1.695312 0.0429688 L 4.207031 0.0429688 L 4.207031 -6.226562 L 6.722656 -6.226562 C 6.722656 -6.226562 11.746094 -6.226562 11.746094 -10.628906 C 11.746094 -15.03125 6.722656 -15.03125 6.722656 -15.03125 Z M 6.722656 -8.738281 L 4.207031 -8.738281 L 4.207031 -12.519531 L 6.722656 -12.519531 C 6.722656 -12.519531 9.234375 -12.519531 9.234375 -10.628906 C 9.234375 -8.738281 6.722656 -8.738281 6.722656 -8.738281 Z M 6.722656 -8.738281 "/></g></g></g><g fill="#03578c" fill-opacity="1"><g transform="translate(160.253189, 199.405153)"><g><path d="M 1.171875 0 L 1.171875 -12.53125 L 2.265625 -12.625 L 2.265625 0 Z M 1.171875 0 "/></g></g></g><g fill="#03578c" fill-opacity="1"><g transform="translate(163.19812, 199.405153)"><g><path d="M 2.453125 -8.5 L 2.453125 0 L 1.359375 0 L 1.359375 -8.40625 Z M 1.859375 -10.671875 C 1.640625 -10.671875 1.46875 -10.742188 1.34375 -10.890625 C 1.226562 -11.035156 1.171875 -11.21875 1.171875 -11.4375 C 1.171875 -11.664062 1.234375 -11.847656 1.359375 -11.984375 C 1.492188 -12.128906 1.671875 -12.203125 1.890625 -12.203125 C 2.117188 -12.203125 2.300781 -12.128906 2.4375 -11.984375 C 2.582031 -11.847656 2.65625 -11.65625 2.65625 -11.40625 C 2.65625 -11.164062 2.578125 -10.984375 2.421875 -10.859375 C 2.273438 -10.734375 2.085938 -10.671875 1.859375 -10.671875 Z M 1.859375 -10.671875 "/></g></g></g><g fill="#03578c" fill-opacity="1"><g transform="translate(166.866661, 199.405153)"><g><path d="M 2.109375 -7.734375 C 2.765625 -8.285156 3.515625 -8.5625 4.359375 -8.5625 C 5.796875 -8.5625 6.800781 -7.925781 7.375 -6.65625 C 7.59375 -6.144531 7.703125 -5.476562 7.703125 -4.65625 C 7.703125 -3.144531 7.300781 -1.988281 6.5 -1.1875 C 5.707031 -0.394531 4.679688 0 3.421875 0 C 2.679688 0 2.113281 -0.046875 1.71875 -0.140625 C 1.332031 -0.242188 1.097656 -0.328125 1.015625 -0.390625 L 1.015625 -12.53125 L 2.109375 -12.625 Z M 2.109375 -7.15625 L 2.109375 -0.9375 C 2.429688 -0.863281 2.78125 -0.828125 3.15625 -0.828125 C 4.28125 -0.828125 5.132812 -1.148438 5.71875 -1.796875 C 6.3125 -2.453125 6.609375 -3.367188 6.609375 -4.546875 C 6.609375 -5.722656 6.3125 -6.5625 5.71875 -7.0625 C 5.300781 -7.414062 4.757812 -7.59375 4.09375 -7.59375 C 3.4375 -7.59375 2.773438 -7.445312 2.109375 -7.15625 Z M 2.109375 -7.15625 "/></g></g></g><g fill="#03578c" fill-opacity="1"><g transform="translate(175.415374, 199.405153)"><g><path d="M 5.40625 -7.234375 C 5.21875 -7.335938 5.023438 -7.390625 4.828125 -7.390625 C 4.628906 -7.390625 4.519531 -7.382812 4.5 -7.375 C 4.070312 -7.375 3.640625 -7.21875 3.203125 -6.90625 C 2.773438 -6.59375 2.410156 -6.25 2.109375 -5.875 L 2.109375 0 L 1.015625 0 L 1.015625 -8.40625 L 2.109375 -8.5 L 2.109375 -6.609375 C 2.515625 -7.140625 2.863281 -7.507812 3.15625 -7.71875 C 3.695312 -8.125 4.21875 -8.335938 4.71875 -8.359375 C 4.78125 -8.367188 4.898438 -8.375 5.078125 -8.375 C 5.253906 -8.375 5.507812 -8.332031 5.84375 -8.25 Z M 5.40625 -7.234375 "/></g></g></g><g fill="#03578c" fill-opacity="1"><g transform="translate(181.254756, 199.405153)"><g><path d="M 0.859375 -7.5 C 2.078125 -8.101562 3.148438 -8.425781 4.078125 -8.46875 C 4.804688 -8.46875 5.367188 -8.375 5.765625 -8.1875 C 6.160156 -8 6.476562 -7.738281 6.71875 -7.40625 C 6.96875 -7.082031 7.09375 -6.625 7.09375 -6.03125 L 7.09375 0 L 6 0 L 6 -0.640625 C 4.46875 -0.171875 3.484375 0.0625 3.046875 0.0625 C 3.023438 0.0625 3.007812 0.0625 3 0.0625 C 1.988281 0.0625 1.296875 -0.242188 0.921875 -0.859375 C 0.785156 -1.078125 0.707031 -1.289062 0.6875 -1.5 C 0.675781 -1.71875 0.671875 -1.898438 0.671875 -2.046875 C 0.671875 -2.453125 0.828125 -2.816406 1.140625 -3.140625 C 1.453125 -3.460938 1.828125 -3.675781 2.265625 -3.78125 C 3.003906 -3.976562 4.25 -4.148438 6 -4.296875 L 6 -5.65625 C 6 -6.875 5.363281 -7.484375 4.09375 -7.484375 C 3.195312 -7.484375 2.21875 -7.222656 1.15625 -6.703125 Z M 1.703125 -1.921875 C 1.703125 -1.109375 2.253906 -0.703125 3.359375 -0.703125 C 4.242188 -0.703125 5.125 -0.894531 6 -1.28125 L 6 -3.6875 C 4.25 -3.4375 3.171875 -3.242188 2.765625 -3.109375 C 2.054688 -2.890625 1.703125 -2.492188 1.703125 -1.921875 Z M 1.703125 -1.921875 "/></g></g></g><g fill="#03578c" fill-opacity="1"><g transform="translate(189.029379, 199.405153)"><g><path d="M 5.40625 -7.234375 C 5.21875 -7.335938 5.023438 -7.390625 4.828125 -7.390625 C 4.628906 -7.390625 4.519531 -7.382812 4.5 -7.375 C 4.070312 -7.375 3.640625 -7.21875 3.203125 -6.90625 C 2.773438 -6.59375 2.410156 -6.25 2.109375 -5.875 L 2.109375 0 L 1.015625 0 L 1.015625 -8.40625 L 2.109375 -8.5 L 2.109375 -6.609375 C 2.515625 -7.140625 2.863281 -7.507812 3.15625 -7.71875 C 3.695312 -8.125 4.21875 -8.335938 4.71875 -8.359375 C 4.78125 -8.367188 4.898438 -8.375 5.078125 -8.375 C 5.253906 -8.375 5.507812 -8.332031 5.84375 -8.25 Z M 5.40625 -7.234375 "/></g></g></g><g fill="#03578c" fill-opacity="1"><g transform="translate(194.868761, 199.405153)"><g><path d="M 0.671875 -8.40625 L 1.90625 -8.5 L 4.40625 -0.796875 L 7.640625 -8.40625 L 8.8125 -8.40625 L 3.234375 4.203125 L 2.203125 4.203125 L 4.0625 0 L 3.671875 0 Z M 0.671875 -8.40625 "/></g></g></g><g clip-path="url(#faff6bc975)"><path fill="#60c1d6" d="M 236.523438 153.773438 C 236.523438 154.738281 235.742188 155.523438 234.777344 155.523438 C 233.742188 155.523438 232.855469 155.816406 232.054688 156.304688 C 231.164062 156.847656 230.328125 157.648438 229.503906 158.578125 C 228.550781 159.648438 227.476562 160.667969 226.214844 161.445312 C 224.871094 162.277344 223.359375 162.804688 221.625 162.804688 C 219.898438 162.804688 218.421875 162.316406 217.085938 161.5 C 215.84375 160.742188 214.769531 159.722656 213.746094 158.574219 C 212.976562 157.710938 212.140625 156.90625 211.238281 156.347656 C 210.417969 155.84375 209.503906 155.519531 208.476562 155.519531 C 207.441406 155.519531 206.554688 155.816406 205.75 156.304688 C 204.859375 156.847656 204.027344 157.648438 203.203125 158.574219 C 202.25 159.644531 201.171875 160.664062 199.914062 161.441406 C 198.570312 162.273438 197.054688 162.804688 195.324219 162.804688 C 193.59375 162.804688 192.121094 162.3125 190.785156 161.5 C 189.542969 160.742188 188.46875 159.71875 187.445312 158.570312 C 186.675781 157.707031 185.839844 156.90625 184.933594 156.34375 C 184.117188 155.839844 183.203125 155.515625 182.171875 155.515625 C 181.140625 155.515625 180.25 155.8125 179.449219 156.300781 C 178.546875 156.855469 177.714844 157.652344 176.894531 158.570312 C 175.945312 159.640625 174.871094 160.664062 173.613281 161.441406 C 172.265625 162.273438 170.75 162.804688 169.019531 162.804688 C 167.289062 162.804688 165.8125 162.3125 164.480469 161.5 C 163.238281 160.742188 162.160156 159.71875 161.140625 158.570312 C 160.371094 157.707031 159.535156 156.90625 158.628906 156.34375 C 157.8125 155.839844 156.898438 155.515625 155.867188 155.515625 C 154.835938 155.515625 153.945312 155.8125 153.144531 156.300781 C 152.242188 156.855469 151.410156 157.652344 150.589844 158.570312 C 149.640625 159.640625 148.566406 160.664062 147.304688 161.441406 C 145.960938 162.273438 144.445312 162.804688 142.714844 162.804688 C 140.984375 162.804688 139.507812 162.3125 138.175781 161.5 C 136.929688 160.742188 135.855469 159.71875 134.835938 158.570312 C 134.066406 157.707031 133.230469 156.90625 132.324219 156.34375 C 131.503906 155.839844 130.59375 155.515625 129.5625 155.515625 C 128.597656 155.515625 127.816406 154.734375 127.816406 153.769531 C 127.816406 152.804688 128.597656 152.019531 129.5625 152.019531 C 131.292969 152.019531 132.808594 152.550781 134.152344 153.382812 C 135.410156 154.160156 136.484375 155.179688 137.441406 156.25 C 138.265625 157.175781 139.097656 157.980469 139.992188 158.523438 C 140.792969 159.011719 141.679688 159.308594 142.714844 159.308594 C 143.742188 159.308594 144.65625 158.984375 145.476562 158.480469 C 146.378906 157.917969 147.21875 157.117188 147.984375 156.253906 L 147.992188 156.253906 C 149.019531 155.101562 150.097656 154.078125 151.328125 153.328125 C 152.660156 152.515625 154.140625 152.023438 155.867188 152.023438 C 157.597656 152.023438 159.113281 152.554688 160.457031 153.386719 C 161.714844 154.164062 162.792969 155.183594 163.746094 156.253906 C 164.570312 157.175781 165.402344 157.980469 166.296875 158.523438 C 167.097656 159.015625 167.984375 159.3125 169.019531 159.3125 C 170.046875 159.3125 170.960938 158.988281 171.78125 158.480469 C 172.6875 157.921875 173.523438 157.121094 174.292969 156.253906 L 174.300781 156.253906 C 175.328125 155.101562 176.40625 154.082031 177.636719 153.332031 C 178.96875 152.519531 180.445312 152.027344 182.175781 152.027344 C 183.90625 152.027344 185.421875 152.554688 186.765625 153.386719 C 188.023438 154.164062 189.097656 155.183594 190.054688 156.253906 C 190.878906 157.179688 191.714844 157.984375 192.601562 158.527344 C 193.40625 159.015625 194.292969 159.3125 195.328125 159.3125 C 196.355469 159.3125 197.265625 158.988281 198.085938 158.484375 C 198.992188 157.925781 199.828125 157.121094 200.597656 156.257812 C 201.621094 155.109375 202.695312 154.09375 203.9375 153.332031 C 205.269531 152.519531 206.75 152.027344 208.476562 152.027344 C 210.210938 152.027344 211.722656 152.558594 213.066406 153.390625 C 214.328125 154.167969 215.402344 155.1875 216.355469 156.257812 C 217.179688 157.183594 218.015625 157.988281 218.90625 158.53125 C 219.707031 159.019531 220.59375 159.316406 221.628906 159.316406 C 222.660156 159.316406 223.574219 158.992188 224.390625 158.488281 C 225.296875 157.925781 226.132812 157.125 226.902344 156.261719 C 227.921875 155.113281 229 154.09375 230.242188 153.332031 C 231.574219 152.519531 233.054688 152.027344 234.78125 152.027344 C 235.742188 152.027344 236.523438 152.808594 236.523438 153.773438 Z M 127.816406 135.433594 C 127.816406 134.46875 128.597656 133.6875 129.5625 133.6875 C 131.292969 133.6875 132.808594 134.21875 134.152344 135.050781 C 135.410156 135.828125 136.484375 136.84375 137.441406 137.917969 C 138.265625 138.839844 139.101562 139.644531 139.992188 140.1875 C 140.792969 140.679688 141.679688 140.972656 142.714844 140.972656 C 143.742188 140.972656 144.65625 140.652344 145.476562 140.144531 C 146.117188 139.75 146.726562 139.226562 147.296875 138.648438 L 135.238281 103.753906 C 134.933594 102.867188 135.390625 101.902344 136.257812 101.566406 L 148.597656 96.789062 L 148.597656 80.644531 C 148.597656 79.679688 149.378906 78.894531 150.34375 78.894531 L 155.125 78.894531 L 155.125 72.550781 C 155.125 71.585938 155.910156 70.800781 156.871094 70.800781 L 175.960938 70.800781 L 175.960938 59.5625 C 175.960938 58.597656 176.742188 57.8125 177.707031 57.8125 L 186.628906 57.8125 C 187.59375 57.8125 188.378906 58.597656 188.378906 59.5625 L 188.378906 70.800781 L 207.464844 70.800781 C 208.429688 70.800781 209.210938 71.585938 209.210938 72.550781 L 209.210938 78.894531 L 213.992188 78.894531 C 214.957031 78.894531 215.738281 79.679688 215.738281 80.644531 L 215.738281 96.660156 L 228.519531 101.554688 C 229.417969 101.898438 229.871094 102.90625 229.527344 103.808594 L 217.371094 138.976562 C 217.867188 139.453125 218.375 139.867188 218.902344 140.1875 C 219.703125 140.679688 220.589844 140.972656 221.625 140.972656 C 222.65625 140.972656 223.570312 140.652344 224.386719 140.144531 C 225.292969 139.585938 226.128906 138.785156 226.898438 137.917969 C 227.921875 136.773438 228.996094 135.753906 230.238281 134.992188 C 231.570312 134.179688 233.050781 133.6875 234.777344 133.6875 C 235.742188 133.6875 236.523438 134.46875 236.523438 135.433594 C 236.523438 136.398438 235.742188 137.183594 234.777344 137.183594 C 233.742188 137.183594 232.855469 137.480469 232.054688 137.96875 C 231.164062 138.511719 230.328125 139.316406 229.503906 140.242188 C 228.550781 141.3125 227.476562 142.332031 226.214844 143.109375 C 224.871094 143.941406 223.359375 144.46875 221.625 144.46875 C 219.898438 144.46875 218.421875 143.976562 217.085938 143.164062 C 215.84375 142.40625 214.769531 141.386719 213.746094 140.238281 C 212.976562 139.375 212.140625 138.570312 211.238281 138.011719 C 210.414062 137.507812 209.503906 137.183594 208.476562 137.183594 C 207.441406 137.183594 206.554688 137.480469 205.75 137.96875 C 204.859375 138.511719 204.027344 139.316406 203.203125 140.242188 C 202.25 141.3125 201.171875 142.332031 199.914062 143.109375 C 198.570312 143.941406 197.054688 144.46875 195.324219 144.46875 C 193.59375 144.46875 192.121094 143.976562 190.785156 143.164062 C 189.542969 142.40625 188.46875 141.386719 187.445312 140.238281 C 186.675781 139.375 185.839844 138.570312 184.933594 138.011719 C 184.234375 137.578125 183.460938 137.28125 182.609375 137.203125 C 182.46875 137.238281 182.320312 137.261719 182.171875 137.261719 C 182.019531 137.261719 181.875 137.238281 181.730469 137.203125 C 180.882812 137.273438 180.132812 137.550781 179.449219 137.96875 C 178.546875 138.515625 177.714844 139.320312 176.894531 140.234375 C 175.945312 141.308594 174.871094 142.332031 173.613281 143.105469 C 172.265625 143.9375 170.75 144.46875 169.019531 144.46875 C 167.289062 144.46875 165.8125 143.976562 164.480469 143.164062 C 163.238281 142.402344 162.160156 141.386719 161.140625 140.234375 C 160.371094 139.371094 159.535156 138.570312 158.628906 138.007812 C 157.808594 137.503906 156.898438 137.179688 155.867188 137.179688 C 154.835938 137.179688 153.945312 137.476562 153.144531 137.964844 C 152.242188 138.515625 151.410156 139.316406 150.589844 140.230469 C 150.585938 140.234375 150.585938 140.234375 150.585938 140.238281 C 150.574219 140.246094 150.570312 140.253906 150.5625 140.261719 C 149.621094 141.324219 148.554688 142.332031 147.304688 143.101562 C 145.960938 143.933594 144.445312 144.464844 142.714844 144.464844 C 140.984375 144.464844 139.507812 143.972656 138.175781 143.160156 C 136.933594 142.402344 135.855469 141.382812 134.835938 140.234375 C 134.066406 139.367188 133.230469 138.566406 132.324219 138.007812 C 131.503906 137.5 130.59375 137.175781 129.5625 137.175781 C 128.597656 137.183594 127.816406 136.398438 127.816406 135.433594 Z M 225.703125 104.214844 L 213.4375 99.511719 C 213.390625 99.496094 213.339844 99.476562 213.292969 99.457031 L 183.921875 88.195312 L 183.921875 133.878906 C 184.949219 134.101562 185.890625 134.511719 186.761719 135.050781 C 188.019531 135.828125 189.09375 136.84375 190.050781 137.917969 C 190.875 138.839844 191.710938 139.644531 192.601562 140.1875 C 193.402344 140.679688 194.289062 140.972656 195.324219 140.972656 C 196.355469 140.972656 197.265625 140.652344 198.085938 140.144531 C 198.988281 139.585938 199.828125 138.785156 200.597656 137.917969 C 201.617188 136.773438 202.691406 135.753906 203.9375 134.992188 C 205.269531 134.179688 206.746094 133.6875 208.476562 133.6875 C 210.207031 133.6875 211.71875 134.21875 213.066406 135.050781 C 213.625 135.394531 214.148438 135.792969 214.640625 136.21875 Z M 179.453125 70.800781 L 184.886719 70.800781 L 184.886719 61.308594 L 179.453125 61.308594 Z M 158.621094 78.894531 L 205.71875 78.894531 L 205.71875 74.296875 L 158.625 74.296875 L 158.625 78.894531 Z M 152.09375 95.433594 L 181.429688 84.074219 C 181.652344 83.96875 181.90625 83.90625 182.171875 83.90625 C 182.433594 83.90625 182.683594 83.96875 182.90625 84.074219 L 212.246094 95.320312 L 212.246094 82.390625 L 152.09375 82.390625 Z M 139.078125 104.207031 L 150.039062 135.917969 C 150.449219 135.578125 150.878906 135.265625 151.328125 134.992188 C 152.660156 134.179688 154.140625 133.6875 155.867188 133.6875 C 157.597656 133.6875 159.113281 134.21875 160.457031 135.050781 C 161.714844 135.828125 162.792969 136.84375 163.746094 137.917969 C 164.570312 138.839844 165.40625 139.644531 166.296875 140.1875 C 167.097656 140.679688 167.984375 140.972656 169.019531 140.972656 C 170.046875 140.972656 170.960938 140.652344 171.78125 140.144531 C 172.6875 139.585938 173.523438 138.785156 174.292969 137.917969 L 174.300781 137.917969 C 175.328125 136.765625 176.40625 135.746094 177.636719 134.992188 C 178.496094 134.46875 179.417969 134.078125 180.429688 133.867188 L 180.429688 88.199219 L 151.089844 99.554688 C 151.011719 99.59375 150.933594 99.625 150.847656 99.652344 Z M 196.792969 100.476562 C 195.828125 100.476562 195.042969 101.261719 195.042969 102.226562 L 195.042969 102.339844 C 195.042969 103.304688 195.828125 104.085938 196.792969 104.085938 C 197.757812 104.085938 198.539062 103.304688 198.539062 102.339844 L 198.539062 102.226562 C 198.539062 101.261719 197.757812 100.476562 196.792969 100.476562 Z M 204.066406 103.21875 C 203.101562 103.21875 202.320312 104.003906 202.320312 104.96875 L 202.320312 105.082031 C 202.320312 106.046875 203.101562 106.828125 204.066406 106.828125 C 205.03125 106.828125 205.8125 106.046875 205.8125 105.082031 L 205.8125 104.96875 C 205.8125 104.003906 205.03125 103.21875 204.066406 103.21875 Z M 211.34375 106.078125 C 210.378906 106.078125 209.59375 106.863281 209.59375 107.828125 L 209.59375 107.941406 C 209.59375 108.90625 210.378906 109.6875 211.34375 109.6875 C 212.308594 109.6875 213.089844 108.90625 213.089844 107.941406 L 213.089844 107.828125 C 213.089844 106.863281 212.308594 106.078125 211.34375 106.078125 Z M 167.546875 104.085938 C 168.511719 104.085938 169.296875 103.304688 169.296875 102.339844 L 169.296875 102.226562 C 169.296875 101.261719 168.511719 100.476562 167.546875 100.476562 C 166.582031 100.476562 165.800781 101.261719 165.800781 102.226562 L 165.800781 102.339844 C 165.800781 103.304688 166.582031 104.085938 167.546875 104.085938 Z M 160.273438 106.828125 C 161.238281 106.828125 162.019531 106.046875 162.019531 105.082031 L 162.019531 104.96875 C 162.019531 104.003906 161.238281 103.21875 160.273438 103.21875 C 159.308594 103.21875 158.527344 104.003906 158.527344 104.96875 L 158.527344 105.082031 C 158.527344 106.046875 159.308594 106.828125 160.273438 106.828125 Z M 152.996094 109.6875 C 153.960938 109.6875 154.746094 108.902344 154.746094 107.9375 L 154.746094 107.828125 C 154.746094 106.863281 153.960938 106.078125 152.996094 106.078125 C 152.03125 106.078125 151.25 106.863281 151.25 107.828125 L 151.25 107.941406 C 151.25 108.902344 152.03125 109.6875 152.996094 109.6875 Z M 152.996094 109.6875 " fill-opacity="1" fill-rule="nonzero"/></g></svg>